<svg width="20" height="20" viewBox="0 0 20 20" fill="none" xmlns="http://www.w3.org/2000/svg">
<path d="M10.0005 0C4.47523 0 3.71814e-06 4.5883 3.71814e-06 10.2532C-0.00180701 12.4056 0.657793 14.504 1.88515 16.2503C3.11251 17.9966 4.84525 19.3021 6.83734 19.9814C7.33737 20.0706 7.52538 19.763 7.52538 19.4934C7.52538 19.2504 7.51238 18.4434 7.51238 17.5842C5.00025 18.0589 4.35022 16.9567 4.15021 16.3795C4.03721 16.0842 3.55018 15.1747 3.12516 14.9307C2.77514 14.739 2.27512 14.2642 3.11216 14.2519C3.9002 14.2386 4.46223 14.9953 4.65024 15.3029C5.55028 16.8532 6.98735 16.4174 7.56238 16.1488C7.65038 15.4823 7.9124 15.0343 8.20041 14.7779C5.9753 14.5216 3.65019 13.6367 3.65019 9.7149C3.65019 8.59935 4.03721 7.67759 4.67524 6.95986C4.57523 6.70353 4.22521 5.65258 4.77524 4.24277C4.77524 4.24277 5.61228 3.97311 7.52538 5.2927C8.33958 5.06163 9.18069 4.94539 10.0255 4.94716C10.8755 4.94716 11.7256 5.062 12.5256 5.2927C14.4387 3.95978 15.2758 4.24277 15.2758 4.24277C15.8258 5.65258 15.4758 6.70353 15.3758 6.95986C16.0128 7.67759 16.4008 8.58705 16.4008 9.7149C16.4008 13.6501 14.0637 14.5216 11.8386 14.7779C12.2006 15.0978 12.5136 15.713 12.5136 16.6748C12.5136 18.0456 12.5006 19.1478 12.5006 19.4944C12.5006 19.763 12.6886 20.0829 13.1887 19.9804C15.1733 19.2925 16.8977 17.9842 18.1195 16.2394C19.3412 14.4946 19.9989 12.4011 20 10.2532C20 4.5883 15.5248 0 9.9995 0" fill="white"/>
</svg>
