<svg width="20" height="20" viewBox="0 0 20 20" fill="none" xmlns="http://www.w3.org/2000/svg">
<path opacity="0.987" fill-rule="evenodd" clip-rule="evenodd" d="M8.82086 0.0868223C9.89398 -0.0289408 10.529 -0.0289408 11.682 0.0868223C13.7231 0.37851 15.6151 1.28945 17.0846 2.68792C16.0916 3.59421 15.1117 4.51373 14.145 5.44622C12.2938 3.9313 10.2275 3.58163 7.94608 4.39721C6.2725 5.14038 5.10711 6.3447 4.44992 8.01016C3.37597 7.23816 2.31601 6.44819 1.27052 5.64059C1.19786 5.60366 1.11488 5.59014 1.03369 5.602C2.69444 2.51022 5.28967 0.671354 8.81938 0.085393" fill="#F44336"/>
<path opacity="0.997" fill-rule="evenodd" clip-rule="evenodd" d="M1.03057 5.60173C1.11445 5.58934 1.19388 5.6022 1.26888 5.64031C2.31437 6.44791 3.37433 7.23789 4.44828 8.00988C4.27928 8.65881 4.17275 9.32143 4.13004 9.98929C4.16655 10.6353 4.27263 11.2694 4.44828 11.8915L1.1105 14.4569C-0.343026 11.5242 -0.369669 8.5725 1.03057 5.60173Z" fill="#FFC107"/>
<path opacity="0.999" fill-rule="evenodd" clip-rule="evenodd" d="M16.9259 17.564C15.8866 16.679 14.7986 15.8489 13.6666 15.0773C14.8013 14.3036 15.4901 13.2422 15.7329 11.8931H10.1719V8.16434C13.3789 8.13862 16.5845 8.16482 19.7885 8.24295C20.3964 11.43 19.6943 14.3036 17.6822 16.8637C17.443 17.1093 17.1896 17.343 16.9259 17.564Z" fill="#448AFF"/>
<path opacity="0.993" fill-rule="evenodd" clip-rule="evenodd" d="M4.44862 11.8931C5.66236 14.8057 7.88754 16.1653 11.1242 15.9719C12.0328 15.8704 12.9039 15.5639 13.6671 15.0773C14.7999 15.8509 15.8864 16.6798 16.9264 17.564C15.2785 18.9938 13.1773 19.8422 10.9658 19.9708C10.4633 20.0095 9.95848 20.0095 9.45603 19.9708C5.68851 19.542 2.90678 17.7041 1.11084 14.457L4.44862 11.8931Z" fill="#43A047"/>
</svg>
